<?xml version="1.0" standalone="no"?>
<!DOCTYPE svg PUBLIC "-//W3C//DTD SVG 20010904//EN"
 "http://www.w3.org/TR/2001/REC-SVG-20010904/DTD/svg10.dtd">
<svg version="1.0" xmlns="http://www.w3.org/2000/svg"
 width="147.000000pt" height="147.000000pt" viewBox="0 0 147.000000 147.000000"
 preserveAspectRatio="xMidYMid meet">
<metadata>
Created by potrace 1.14, written by Peter Selinger 2001-2017
</metadata>
<g transform="translate(0.000000,147.000000) scale(0.100000,-0.100000)"
fill="#000000" stroke="none">
<path d="M560 1123 c-90 -32 -128 -77 -224 -264 -43 -85 -104 -189 -134 -231
-52 -74 -57 -78 -94 -78 -21 0 -38 -3 -38 -6 0 -10 23 -49 32 -55 5 -3 -7 -40
-27 -82 -38 -84 -41 -96 -22 -98 56 -5 96 16 128 67 11 19 25 32 30 29 5 -4
44 -1 86 5 43 6 112 13 153 16 l76 6 18 -57 c10 -32 29 -69 42 -82 l24 -24 30
21 c30 21 30 23 24 88 -3 37 -7 72 -9 79 -2 6 10 17 26 23 36 15 37 31 1 67
-25 26 -27 34 -26 98 10 342 4 475 -19 493 -7 5 -38 -1 -77 -15z m-34 -395 c5
-134 4 -166 -7 -170 -8 -2 -60 -6 -117 -7 l-102 -3 71 114 c40 62 79 124 88
138 9 14 25 42 36 62 10 21 20 36 22 35 1 -2 5 -77 9 -169z"/>
<path d="M1000 1101 c-19 -10 -43 -32 -53 -49 -17 -29 -62 -190 -73 -262 -3
-19 -9 -53 -14 -75 -5 -22 -12 -53 -15 -70 -3 -16 -14 -64 -24 -105 -40 -164
-1 -277 75 -218 7 5 15 29 19 54 7 49 11 74 20 114 7 33 14 68 21 105 3 17 8
33 12 36 4 3 31 25 60 48 28 24 52 39 53 34 4 -42 41 -134 125 -308 51 -106
136 -158 162 -100 16 36 15 42 -13 79 -44 58 -100 197 -120 301 -3 17 -11 57
-17 90 l-10 60 110 112 c61 61 118 125 127 143 l16 31 -63 -2 c-97 -3 -124
-18 -213 -122 -75 -87 -153 -162 -161 -154 -6 5 46 157 72 213 13 28 24 54 24
57 0 15 -87 6 -120 -12z"/>
</g>
</svg>
